#!OML:ASF E:\motion texture\Top Level 1\Subject 1\Session 1\male.ASF
:FULLY-SPECIFIED
:DEGREES
534
root -32.7314 17.8074 4.61448 20.0855 -86.9068 -11.5927
lowerback -0.126604 0.344181 -0.151811
upperback 0.151634 0.439097 2.18912
thorax 0.207874 0.210782 2.32949
lowerneck -13.7946 1.89523 -2.86528
upperneck 14.0654 2.87593 1.55255
head 6.48309 1.35044 1.23636
rclavicle 7.05686e-015 1.19271e-014
rhumerus -28.6772 -17.8543 -75.822
rradius 25.6187
rwrist 17.6234
rhand -16.2988 -25.7516
rfingers 7.12502
rthumb 9.91188 -55.4982
lclavicle 7.05686e-015 1.19271e-014
lhumerus -25.9456 4.69114 85.5068
lradius 39.0876
lwrist -25.5991
lhand -14.2094 20.3476
lfingers 7.12502
lthumb 11.9272 49.9879
rfemur -31.5131 -4.60915 21.5621
rtibia 18.88
rfoot -1.92295 -21.1151
rtoes 14.6123
lfemur -2.38736 -3.6475 -17.256
ltibia 27.0368
lfoot -10.2721 1.02986
ltoes -22.9556
535
root -32.885 17.8145 4.58747 22.9816 -86.8608 -14.4862
lowerback -0.141681 0.373884 0.029267
upperback 0.155447 0.476254 2.25708
thorax 0.219601 0.22882 2.29775
lowerneck -13.7182 1.89291 -2.8512
upperneck 13.9876 2.86289 1.58247
head 6.44511 1.34843 1.24042
rclavicle -3.67752e-015 1.82882e-014
rhumerus -28.6944 -18.2473 -75.5615
rradius 25.2764
rwrist 17.9302
rhand -16.2161 -25.7692
rfingers 7.12502
rthumb 9.99171 -55.512
lclavicle -3.67752e-015 1.82882e-014
lhumerus -26.2729 4.89999 85.3489
lradius 38.6064
lwrist -26.1108
lhand -14.0338 20.3224
lfingers 7.12502
lthumb 12.0965 49.9527
rfemur -31.1681 -4.50749 21.9142
rtibia 19.0392
rfoot -1.77549 -20.9367
rtoes 15.25
lfemur -2.743 -3.56331 -16.9026
ltibia 28.1698
lfoot -9.5544 0.838901
ltoes -23.3318
536
root -33.039 17.8223 4.55991 26.0185 -86.809 -17.5277
lowerback -0.155522 0.407406 0.217785
upperback 0.160597 0.518242 2.32694
thorax 0.232017 0.249235 2.26385
lowerneck -13.6496 1.88455 -2.83917
upperneck 13.93 2.8412 1.6186
head 6.41502 1.34233 1.24636
rclavicle -3.47873e-015 0
rhumerus -28.7044 -18.6431 -75.2975
rradius 24.932
rwrist 18.2487
rhand -16.124 -25.7899
rfingers 7.12502
rthumb 10.0805 -55.5285
lclavicle -3.47873e-015 0
lhumerus -26.613 5.10145 85.191
lradius 38.1016
lwrist -26.6611
lhand -13.8343 20.2927
lfingers 7.12502
lthumb 12.2889 49.9116
rfemur -30.797 -4.41249 22.284
rtibia 19.2088
rfoot -1.64503 -20.748
rtoes 15.8639
lfemur -3.14463 -3.47023 -16.5338
ltibia 29.3507
lfoot -8.79347 0.65858
ltoes -23.6458
537
root -33.1932 17.8308 4.53184 29.1814 -86.7502 -20.7022
lowerback -0.167037 0.444233 0.412786
upperback 0.165812 0.564423 2.39856
thorax 0.243265 0.271723 2.22813
lowerneck -13.5867 1.87053 -2.82883
upperneck 13.8934 2.81112 1.66139
head 6.3927 1.3323 1.25428
rclavicle -9.74045e-015 -4.85035e-014
rhumerus -28.71 -19.0395 -75.0314
rradius 24.5899
rwrist 18.5817
rhand -16.0236 -25.8135
rfingers 7.12502
rthumb 10.1774 -55.5473
lclavicle -9.74045e-015 -4.85035e-014
lhumerus -26.9683 5.29693 85.0317
lradius 37.577
lwrist -27.2507
lhand -13.6146 20.2548
lfingers 7.12502
lthumb 12.5007 49.8609
rfemur -30.3988 -4.31837 22.6688
rtibia 19.3803
rfoot -1.53432 -20.5555
rtoes 16.4578
lfemur -3.59231 -3.36798 -16.1498
ltibia 30.5751
lfoot -7.99421 0.489806
ltoes -23.9002
538
root -33.3476 17.8399 4.50334 32.4736 -86.6874 -24.0123
lowerback -0.178432 0.485956 0.613341
upperback 0.171728 0.616878 2.47142
thorax 0.255198 0.297314 2.19066
lowerneck -13.5321 1.84933 -2.82131
upperneck 13.8809 2.77063 1.71221
head 6.3796 1.31741 1.26468
rclavicle 8.84592e-015 1.74931e-014
rhumerus -28.7046 -19.437 -74.7645
rradius 24.2424
rwrist 18.9277
rhand -15.9174 -25.8362
rfingers 7.12502
rthumb 10.2798 -55.5649
lclavicle 8.84592e-015 1.74931e-014
lhumerus -27.3376 5.48545 84.8718
lradius 37.0343
lwrist -27.8771
lhand -13.3729 20.2096
lfingers 7.12502
lthumb 12.7337 49.8013
rfemur -29.9741 -4.22037 23.0666
rtibia 19.5453
rfoot -1.44203 -20.3584
rtoes 17.0294
lfemur -4.08406 -3.25318 -15.7534
ltibia 31.8363
lfoot -7.16429 0.336274
ltoes -24.0904
539
root -33.5022 17.8495 4.47444 35.789 -86.6118 -27.3527
lowerback -0.189107 0.529624 0.818781
upperback 0.179526 0.671651 2.54524
thorax 0.268862 0.324028 2.15151
lowerneck -13.4809 1.82144 -2.81247
upperneck 13.8866 2.72051 1.76412
head 6.37316 1.29774 1.27461
rclavicle -5.26779e-015 0
rhumerus -28.6935 -19.8293 -74.4992
rradius 23.9044
rwrist 19.2833
rhand -15.8026 -25.859
rfingers 7.12502
rthumb 10.3906 -55.5823
lclavicle -5.26779e-015 0
lhumerus -27.7163 5.66762 84.7117
lradius 36.4804
lwrist -28.5309
lhand -13.1017 20.163
lfingers 7.12502
lthumb 12.9952 49.7382
rfemur -29.5177 -4.12052 23.473
rtibia 19.6922
rfoot -1.36992 -20.1619
rtoes 17.572
lfemur -4.61976 -3.13133 -15.3457
ltibia 33.1306
lfoot -6.31205 0.195122
ltoes -24.2165
540
root -33.6567 17.8597 4.44518 39.1294 -86.5261 -30.7241
lowerback -0.201018 0.576563 1.02789
upperback 0.1896 0.730449 2.61978
thorax 0.285722 0.352723 2.11115
lowerneck -13.4399 1.78635 -2.80644
upperneck 13.9169 2.66021 1.82222
head 6.37647 1.27318 1.28649
rclavicle 8.34896e-015 -9.54166e-015
rhumerus -28.6712 -20.2162 -74.2376
rradius 23.5706
rwrist 19.6467
rhand -15.6814 -25.8803
rfingers 7.12502
rthumb 10.5075 -55.5977
lclavicle 8.34896e-015 -9.54166e-015
lhumerus -28.103 5.84395 84.5517
lradius 35.9154
lwrist -29.2124
lhand -12.8094 20.1073
lfingers 7.12502
lthumb 13.277 49.6644
rfemur -29.0306 -4.01208 23.8861
rtibia 19.8144
rfoot -1.32168 -19.9656
rtoes 18.0872
lfemur -5.19802 -2.99977 -14.9285
ltibia 34.4508
lfoot -5.44949 0.0692183
ltoes -24.292
541
root -33.811 17.8702 4.41561 42.4661 -86.4302 -34.0975
lowerback -0.212402 0.626171 1.23927
upperback 0.200497 0.792552 2.69466
thorax 0.303346 0.383058 2.06995
lowerneck -13.4043 1.74429 -2.80184
upperneck 13.9709 2.58967 1.88552
head 6.38844 1.24372 1.2997
rclavicle -1.59028e-015 -5.56597e-015
rhumerus -28.6401 -20.5958 -73.981
rradius 23.2443
rwrist 20.0197
rhand -15.554 -25.9028
rfingers 7.12502
rthumb 10.6304 -55.6139
lclavicle -1.59028e-015 -5.56597e-015
lhumerus -28.5008 6.01527 84.3908
lradius 35.3458
lwrist -29.9161
lhand -12.4964 20.044
lfingers 7.12502
lthumb 13.5786 49.5812
rfemur -28.513 -3.89159 24.3036
rtibia 19.9069
rfoot -1.30322 -19.7727
rtoes 18.5677
lfemur -5.8169 -2.85846 -14.5035
ltibia 35.7902
lfoot -4.58613 -0.0411767
ltoes -24.3184
542
root -33.9652 17.881 4.3858 45.7696 -86.3231 -37.4433
lowerback -0.223288 0.67852 1.45322
upperback 0.212175 0.858067 2.76934
thorax 0.321746 0.415091 2.02722
lowerneck -13.3763 1.69411 -2.79983
upperneck 14.0503 2.50752 1.95417
head 6.41007 1.20865 1.31438
rclavicle -1.19271e-015 4.77083e-015
rhumerus -28.5991 -20.9637 -73.7316
rradius 22.9271
rwrist 20.3982
rhand -15.4221 -25.9273
rfingers 7.12502
rthumb 10.7576 -55.6318
lclavicle -1.19271e-015 4.77083e-015
lhumerus -28.9068 6.18331 84.2291
lradius 34.7721
lwrist -30.6388
lhand -12.1646 19.9743
lfingers 7.12502
lthumb 13.8984 49.4898
rfemur -27.9658 -3.76015 24.7249
rtibia 19.9679
rfoot -1.31897 -19.5835
rtoes 19.0086
lfemur -6.47443 -2.70886 -14.0728
ltibia 37.1425
lfoot -3.73675 -0.135247
ltoes -24.2956
543
root -34.1191 17.8919 4.3558 49.0174 -86.2051 -40.7378
lowerback -0.236209 0.733841 1.66849
upperback 0.225968 0.927167 2.84383
thorax 0.34372 0.448916 1.98372
lowerneck -13.3552 1.6355 -2.79809
upperneck 14.1533 2.41334 2.02472
head 6.44075 1.16765 1.32898
rclavicle 1.88845e-015 7.15625e-015
rhumerus -28.5453 -21.317 -73.4922
rradius 22.6198
rwrist 20.7735
rhand -15.2877 -25.9503
rfingers 7.12502
rthumb 10.8873 -55.6481
lclavicle 1.88845e-015 7.15625e-015
lhumerus -29.3177 6.34827 84.0677
lradius 34.1974
lwrist -31.3753
lhand -11.8145 19.8938
lfingers 7.12502
lthumb 14.2358 49.386
rfemur -27.3924 -3.61754 25.1489
rtibia 19.9976
rfoot -1.3724 -19.3998
rtoes 19.3997
lfemur -7.1699 -2.55053 -13.638
ltibia 38.5003
lfoot -2.91195 -0.213959
ltoes -24.2326
544
root -34.2726 17.9029 4.32572 52.1861 -86.0783 -43.958
lowerback -0.249755 0.791905 1.88328
upperback 0.241729 0.999616 2.9172
thorax 0.368349 0.484435 1.9395
lowerneck -13.3414 1.5692 -2.7999
upperneck 14.2802 2.30815 2.10048
head 6.4806 1.12134 1.34517
rclavicle 6.65929e-015 -1.35174e-014
rhumerus -28.478 -21.6508 -73.2661
rradius 22.3263
rwrist 21.144
rhand -15.1515 -25.9742
rfingers 7.12502
rthumb 11.0186 -55.665
lclavicle 6.65929e-015 -1.35174e-014
lhumerus -29.7329 6.51277 83.9056
lradius 33.6254
lwrist -32.1196
lhand -11.4476 19.8041
lfingers 7.12502
lthumb 14.5893 49.271
rfemur -26.7945 -3.46658 25.5738
rtibia 19.9974
rfoot -1.4624 -19.2193
rtoes 19.7482
lfemur -7.89819 -2.385 -13.2039
ltibia 39.8536
lfoot -2.12227 -0.276911
ltoes -24.1305
